/* XPM */
static char *result[] = {
/* columns rows colors chars-per-pixel */
"128 128 65 1 ",
"  c #5B5857",
". c #635F5D",
"X c #6B6A69",
"o c #696563",
"O c #646360",
"+ c #6F6B69",
"@ c #6F6F6C",
"# c #5D5957",
"$ c #656463",
"% c #696967",
"& c #5F5E5B",
"* c #7A7774",
"= c #585755",
"- c #74716F",
"; c #70706F",
": c #5F5F5D",
"> c #575451",
", c #514E4C",
"< c #5D5756",
"1 c #4C4846",
"2 c #3A3735",
"3 c #464240",
"4 c #6E6867",
"5 c #686261",
"6 c #807C7A",
"7 c #757472",
"8 c #767674",
"9 c #4A4744",
"0 c #797472",
"q c #52514F",
"w c #615C5A",
"e c #93908E",
"r c #7C7B78",
"t c #ACA9A7",
"y c #979491",
"u c #86807F",
"i c #4D4C49",
"p c #9E9B99",
"a c #8C8987",
"s c #7C7C7A",
"d c #615F5C",
"f c #868280",
"g c #676462",
"h c #73706E",
"j c #81807D",
"k c #878784",
"l c #716E6C",
"z c #B1AEAC",
"x c #272321",
"c c #413E3C",
"v c #7F7B79",
"b c #54514F",
"n c #474643",
"m c #302C2A",
"M c #9F9E9B",
"N c #999895",
"B c #454240",
"V c #949390",
"C c #41403D",
"Z c #A19E9C",
"A c #8F8C8A",
"S c #4B4846",
"D c #3E3B39",
"F c #35312F",
"G c white",
/* pixels */
" .XoO+o.+o+@@+o.#OooO#Xo+$o%oO.%o+.&#*%o=+oooo+-o.O.++;+o+o+-.Oo:.@oO&O.:#o.>&oo#&.##*&o+.##$,=#o+.-+o<$+o,1**oo+;@oo#oO@+%o.&#O",
">oO++oX+o+@+o%o=+o:o&o++ooOooo.+oOo<.o+o@o%+#+*o%>o***+.23.-+4,O.@o5#.++o:%,#.>.:.#.#.oo.o,#>+ooo++.o%#+.:o67*o$oo+O.+--8->  #%$",
".&oo+o%++ooooO.oo.ooOO%+o.++..oooo.Oo+*@.-o-&+o>+O4@**+9-0oo+o-++++.:-++.:1.q,>#<O...#<&wo&oe@O.+o.#.o#&&#o+-o&o.X.O.%+---%roO%.",
".o+%o+o+++o%%oo+oO.ooOo#Oo#&..o+.5ooOO-#o+O.ooo.+o*6o-X-*r+*--.+@-ooo-oooo>O#,>=###&####rotyo#$@-+:.+>>#ooO+@oo&>-7o+o+o8-+oO.-.",
"%+oo+++Xo+o4+o+Xo..&%#Oo..o.o%%+oo+.ooo&oo+.+..o-u+-Xo@o6-+@++@*+-*oX-O>.#1#i,.>=#..#>5.ep,>..o->>%.+O,>+oo-+%=#.+OoO=*+-oooo+o:",
"Xo%+ooo$ooo%4oooXo$..o#....O+5ooo+a+-o-+%+X+O...--+*++**u--+ooO--+*-.++o#=,.>=.o>#....++.>3#..+oXo>o.&&.o%oo+.Oo+$oo..%+-X.+o#X+",
".ooo$.%++oooo.@++o+###O...o.Oo%oo+*6--+o++5%##.o+;4+.o0rs-oXo%--++-+#%>>>,.&>+q&#=O.--#.%,q,-7+-+.,.Oo%o@-+1o>+.-%#o+.-+;+%++O7+",
"oo%+oOo+++.o+oo%%+oO##d.O...o+%-o+4f++oo*++o.Xo+.%4+-+-*6--5+-Oo+-o:.>&>.>.q...qoo-+oo..#=>o;+-oo:>=o.%#Oo+#o#.+o.Oo+.++#+o+@o-@",
"+Oooo.o@O:#X%oo.%oOo&.+.oog+*+-hooooO.--*4++.#-+oo.+o+06--+o-;o-@-+O#=.&#&o#o..o-7&#>.,>##.---77+#,&oo.&o+$%.%:.OOoX+-.7@.@o#oo+",
"X..XOo.o%o.oo%oo%O#o.#++.o-*+6+.O++-X-o--o.o.o-$Ooq.+*-6-X+-+o++;++=oo.&>Ow#.o+*.o+9,1.#.$+oo++@: ..+O.+o+oo#@-o.o-*--+$*.7+:..;",
"O.oooOo#Og.=.@>o%oO.+.o.;*s+$+o+++**O#-*oo..+o+oo#q<+**;*+oo+.%4+-+.%o><>=#O+...&o.>ii:+o$$++@--#&o:+.#$.-+$+7o%+-;-+oo%o.++Oooo",
"oO.+ooo$o.O#.%Oh#.go.+oo*6+#.+o+**->++oo..o.++o4-o+o--*6-++%+#--++o+o&o.#.@+.&.#,o..>#>++#.+@-r+>O..@&#o++o.o*o+7O@Xj7o%o+@+.%+;",
"%oO-%o%O%.O$oo..o.%+og-**6#oo-*++-#.oo---++@0++--7+o6+-*+.o+-o-o.o+o.-%>++.$..ooOooo+++$..OO---o+o.%+#ooo$@+++O++-+-f-o*.o+%:ooX",
"%+=oooo+ogooo#oX+oo5+-+-.#o.+o+7o..O++*8#;-@-++*--o+---++%-+-+oO.+o-oo..>5ooo.o.oO-.+++X.>>+*6+o.o.#7++7O+#o%*-+oo%6+@++o+@+o+-%",
"7.#O+.@ogoo%.oO%-oo--o-o..+.-;oo.#.>$++-+*%@*@--X#+.+-o.6*r6..#oo+o+.+O>oo>#oO+=-X.o$o@o##o$.-*oo&X@+7-Oo+%-*6;+o>+5#%%@+ooo-7o%",
"oo=>%o%o.=+o&.#g*oh-*+o++;o4+ooX%:...-o#X+o-@*or*+5oo-o-@-+.5&o:.$...+-++o.o++@+O->.%++..-*%;--:+o+-7-ooo+-7r+-@@o+$o+o+++**.oo-",
"@.o.+%%ooo.oO$+-+o%--+o*o-o$+;-.-o+.o+o-fy%o*+o7*-oo<+++o.o#o.&..oooo+--o+Xo-6o;oo+&6o%$o;+o7+*Or--**@-o--66--+o++%o+@@+-7-o>o#.",
"+.+@o+-+%#.oo.#+#>--*o*+o+4o-;++++7@-;o-o.@-r7.4--+o*-.oo+.oo<<.+@.#.-%-+-o+-r-+oO;-@o+oo..+*6s#@+7++Xo@@.--O-o+++o+++-+%@O&Oo#.",
"+%%%+@h6-o++++o#+--h+*++++$++----$+@X&#$O+o--+O.-o-%+++.#,o.$#.o,o.o%*-*oo.+s%+#++++=%#%o@+-+*f+$>--*7@+---@;++%+@+%--oo>.o.#.%o",
"+o%@oo;k*-+o+o##ooX#uoo-o-;-6-+--+7-+O+o.+%-+oo+#+-@.+o<.3-o+o+.#Oo+-*o;f--+6#++o->+.&oo-@o-r-*o++%*--++-@7-@++oo+++@oo+ooo..#o.",
">&%--+grg--+7+O<o---o>.+-o*6*-+r*6#.;+-+.o++O.+---+.#o+#yfo.$.++#..%+*O+o+***+o;.o<*+o7--7+-***@+.7@7-7--7+@@+.r0-+$-+#%..o&#.-,",
"%o-@o++.+Xo+.dO.,-*+5og+-+8*--.7@+*6-+%+o-+o-+o%#.%-Xo.#.o#.+-*O.&%6fo-6-Xs-@o@+%.X-$++7oo-7*;.o------67*-@+@%.*o++*+.>.o;o#o%.=",
"+;-O+Ooo>O=.%o+o.8#$o$+++.X+;-o%--o*o;-.+oo+o++6&o+.e3.,,#+0*-o-:o%.7+-5.-o*+os+.-.@-*7X+@-*oo-++-@----;*-++*+X.o++.o:ooo..o#.@+",
"OoX.o&o+qo-%+oo#>.o#+X+.+o+o+oooO%o-l-o4+oo-+-o-.:.q=.,,;.+o-@.7+*<**o*6o-.f+++o&--r-*.4r+%&***-+*7--%*---+*X+#Oo#oo*+>o>.&.-.-+",
"O&%.#.&#q+r-6r.>#>.#&+-++.--o+o-7+++++oo.o+@.*>oz>.++#o+o-7-o=or++4-**+8:oo@+#-Xo.+-OO--++o%-7*--8@-+*+-**+-Ooo+:4+--,i1.+-o+o+@",
"...#=.q#.7u-.$+1#o>>o#+o++oo;ooo+o4+.+5#o+++ ,,#*,o..++-++X-O>3*oO6*+.-.o+8.o+-7oO-o++77--6@o6;--@;-*-+*o-.o.#+>+*;*o,2#+-+@.+.-",
"o.:.Oo,o+*++o#oq##,#.*o+++-.+.---o7-..oo.+,oq=.+,o+ooX7o-*--##....oO+o;+o***+o.O%o.#X*7X-7-r*---@-;-@*oo.o,>,#--6-*+*>-..+*@.o--",
">#o:>.##o;+oooo%>=o%g;g+o4+%+o5o#+++oo#.##3 o,ooo.;--*oo%*-+1o-.O<-+o--.8+-*#-o+%X&-rX77-;--+--+-7-*+oo.#,< .#**-*++-**7+**-ooo-",
"ooOo#1<.o+-@.&o.=Oo+oO.#%ogho@oX,.#-.>x1,>##+o:o-+*8X.o-*o--*#o#4*>+*o..*6:;76o-##o+7777-*7;*--+++oooo..,1.,-+*u-7+oo*6-@*.+--++",
"%o%4>,<.+..oo+ =#+d:=#gO1o+++.o..#,&1c-o>,.=o++-666oo+f+o%*%++#.oo#.o.X *o:-**o@%+*77-*-r---67+-f--@-+..#>.1.**+o5.--76-o-.o+oo.",
"o+..11+#..>oo,,#=%&#+:.%o+o+=.#.#.,>6*o.:..%*+-**a-X#oor.*X+o+-%.+7+++o8-.7+$*-*%&@-*7**r-*7+-O-6r+-o:#5.>,#o+o+-++o7**@o+o#oOO.",
"o.>>,=+. ,...>o#d=+o...o++...##o>>>-#.o+..;+;f@6d;-++&*-X--oo*5+..*Xv-jXs+;--o*;-@--r+-77@o++ooo---oo+.>.#,boow++-+@7*7+oo++<o#>",
"i1=#%+o.oOo.#o>#.$#.##.o..oo.>.>##.&Xooo-@*+*--;;oX*oo+-*+*:oo-.fXo.XX**+++-*-++--****@-s*-+*+.o;o;-@--.,,1>>oo.+o.+-*-+:o.>..&>",
"#3o>-oo&oo++.%:# >#...###:..#33>#...o%+86-66o;o++.;o4.--oo.-+.fX:.#:ofX+.oXX--;-+7*-7--+-*+6o%.+o-*-+*.O>>$%#<31>.+--@oooo#,>#.#",
"X@*++@o#+X.>>1.=,=&#ww.#&.>>3>o.$oo%$$8-;66+Xo+@+>.o&*.-oo6o6*#X-o;606+XX.---r-7*7***7+*oo.+++o0@0++O#9.#,+%o.O<#Oooo-.....=>>O#",
"+,f7ooo&+X#. ,#>=>,=#.O.>,n>##Oo*@r+8+8;66*o@$OX;X$.>+-o*+.++6++v6v;v;voX+-7-*7--7**++6@.oX+#+--*#..,33##+o.#O+...0++-$..<%>&>.>",
"=o@-%+o+-..:>n#>%+o==:f@e6:#+4o+;8s8;s686**@O7Oo#...*--++Xo6o+o+;*;fvs-+o-*7**7*f*+-O*o%.o+o;+*7...3+&-oO+;-&-++o.+-o+o##o+.##>q",
"O+6o.++:## =,io.o...:$pp##+O.+X*s68%;;sr-6+;+8%%.-oo#>+-+-o-;--f;o*6-r+;@--*-66*+%-$%@#,.o+-o-++#o%-%+>---oo.+ooOo-oo4+4+o+o>#..",
"--o---o..>>>&&##.>mipp.>+8++;%fo%joX6ffs*o*$-%-%+.-o.o-.+X--o;*---88-v8-*s-*j6**.O+o+.oO*o-7--+.#=>#%o@*@-+++-o,ooX-w++*--#,#..#",
"o$-;;-o.>,$o.$#.#1ak=&.o-+-87;%@OO-*r-*-j-oo&o.$*+-+.oX-*o;--ofos**---*--r66-*.+--+@+-r6-o+-@o%&>,=+o#+.oo*-.-+o<.+o+*--o.>>##.#",
"soo.+o>:.$.+#.o:,ei>oO*-8;;;+%7@7-r*f*-r-%O#O-+*o7$.o++*+-;--+*6*7.++**--7o*o+Xo--+ou6*6%o---oo.#&.<.+f6oo*+.-*+#.o+-++O###>q>..",
"&.O-+o&.o:>>.$MNB3$O7rXrs;8X@%Xj--**6*-+7-O@*O,*+-+8o#++*-+-+;8*7*--;***-o&+#4$oX+0o66+o+o-&o&,ooo+#o*O#o*--$o*++o0o.o..#.#>,#o.",
"OoX%.>$o#>##VfnC &@7@8ss*887Oo6@7#-os*f*-*#@+-**s*+$o#*+r*-%.+*-*;-$++@.-.-o. ..-+*7j-o.%++.%%-$o+%.#Oo++*-o..+X-+..+..#..#1,#Oo",
"#.#.o...& # ,n:>%%@rrj8;;8XO@7@7fjr77s6*j+Xjs-X6--X++;-r--X-----+%+-;+o+-+-+1&$.o#*-.%.0%o%ooo@+o.+.+..+oo-<o++>$o.+o>###>+,,OOo",
".$&#o$+%3n,i= %%8;8;$8X;87@%-;$7rj;--%*7--r*-*6f+o+6-686**8*-*-@+++o+@6-++-o#iO;**#o.o-++-#o++o;#o-+-.o$o+o.++5+o+oo.#..##O<..+O",
"&$$..Or:O O&:&@@77.:+;;%;*7r7@r7sr@oo@+*j*X7-8-X+o*X-6--**--7;--7-@.O-++--:=#o.-+oo+o++X&%o$#%o+7r++@o-@+.+o+oo.+o0..&..oo...ooo",
"##o$ap:&O:&O%7@%7@88%;*O7@7rj77-O@@+o@-@-8:oo***-@o+7-;-*7--*-@.o%-+6-6;##>&o.O%Ooo+$.o.++#oo.+---o+-.-.<X++.*+.#&*.o.$o#.o.&#o%",
"o.+fq>::%O;@%7@%;;Xj;s7r@r7rjr77@@%X-+-@r7*%oo*;--o;@++X-7*6..oOoo+oXo*o.&oo-&#.>+o%..o.%o+.+oo+@---+++oo-o++o$&+@+oo+.oo+$+o$.X",
"O.O,+&&7X@%@%7O%+;s77rj&7@77r7@r@r@7%-*O*j+Xr-+;---*-++o--%*+%oo.#&#o@##+oj* ,O.>&.O+-oo-o.Oo+@-++oo#+:+o+oo&o+.+-.w.O..-+--++oO",
"o.%O&O@;r%+%q%@X88@@@jO7@%r@j%7787ss#7*7++%+-*@-7--@o#+++*--++%o##.o-#>.o-#.o&X.>#o.o+oo..o++-oO+o=...4o.o.=>>.%4-.ooo.;.++---;#",
"oO+&X%=@7%%%o@*@@@@@7*%7%@k7%rrj@@;X@@-*@+%+--**7+%+&o$+o++++o##.+o.+o+XOo$#..>>#+-@+o+.+,.o++;+-o+.++..oooO@.o..-oo+o.-++-8-oo#",
"o+OoOO>O+7Xo;*-*rOhOrr7j7r@O7-r8;;@r@+-*7+---;--++%=r-+o*8*-ooo.oooo:oo-Xo#+..:&+X.%..X44oo+..oo4+ooo#.Oo+O.%o.oo+%.Xo-X-+:*-oo.",
"...%o.%+@-oo+***@@%7r%rhrr;rfrkr@@%o-@+*@+@-o@*++%.-+;-;+6+++o.#o-.&#+.$#o&:&#=.o+..&.ooo+O-##<#o+oo.#.O:+##oo:o-.Xoo+o%+++*oo.#",
"#o+&@@.o;+.o@@@7@7r-77*rr4rj7r@@777@@oo+-+-++7+++O+o++o+.o+oooo+..&.Oo+..O.o>##+&%q<.#5o++.##>&>>:.5o$Z+Oo#&o..oo+Xo+o+-#$-+.:oO",
"&%oO.+%-h+oo@@7r777%@@%7r@r@rrr@@77-&.%ooO+++@--o+*+*+.o++o++$-o++o>.. &&oo#>#O+.>Oo+$o@oo## #..#.oO+.*+.:=.# &$+++o+#.++++oo&#&",
"o.&:+.+sX+O.%@7%O%7@r7*7Xrjrrj@o@@+o:o*@Oo%+o-+.*8.ooo+-+.+XXo.;o..oo&o#.O#,..&#.o&..o++#&##>.> #.%o.*5oo+.>,$+.Xo7.o.:##+8-+o#.",
",,.w4%#.u+@%o@%7%77r@777r7@7r77%-+.o..ooo#+o%&+++.q.-+*-..,O--+o.O-+....$.Oo#>Oo.&&...##ooo#=.o.o.+.%oo&%o.>7-*&.oooO47:**-oOo#o",
"13$g+*-.5q.%7r7@rX87@%7r@7777=+%o%%oo.%+#+@%o#+->ooo+--o,c$++Xo>-.+o.#Xo+o.&..>>##o.o5#+o#&,.qOo.oo>..o>.OOo*--ooo+o+.o@++o,@+o%",
",,.%-$%<gd#%O@;@+;@@7@7@@@.%$%o%$ooO%o%-oo+o>o%#.o$-**++-+-:--+o-4-+o.o%+..1.>,,=##...><#.+.aA>.-OO#.o,=&.o+@+oO#O;.o-..+X*o+O%X",
".#&#+#<O+.&OOs;8Xr;$@@%7-%%OOo%+%oo%$%%oOoo$#+.o.+f**+O--*-@--X$-+-%o.;.#$#.>#>#q##.&#>#<*pp#.o.+%.o.O#<>.Oo++.O.>+-=+#+;+%+-%++",
"#q,..-&g<+%%;@;s;;;77@%%o+-%g+o%oX---++ooo+o+o.oo-++-++o*r-+-Xo-oX++@o@.O#>,>>,#$1#.#>.&*k#q##.%oq&#.%<q++Oo++O.XoX*%.o*-*+Oo%&O",
">11%O<-.+v%-XrX;XX:;7rO%;@%+%Xo+oo-y*--*o+4%oo>.o--++oo-*6-@oo+---o-X.oo>>,,#i$.O>##..+.==,2,:O+o#.#&..>..Oo#o.o+oo%.o.%-++o4%.+",
"Oci..o-O0+%X@8+7@X7@r7%O+%O+o5$++%+k6-++++4oo#%oo+o++o@*7r+X.+7-o+7+o#qq>,>:,##,#&$.+%#>,.>,%.%+%%#,#OO.#++*%+oO++.o++.+-+o+&o+@",
"o>+o@#%o*Oo. XX s-@;@%@%.oooXoo+@$O+o+#o+*+@%o#o%oo%+-%-*r+-o@+o+++o&#>#>&.>#o. ..+oO#.<>##q+.+-+.#&.#oo.$+++%o:&#%#o+;-#Oo$.%++",
"oo=+..=+..O@>%+;%@@-X%.%%oo%*-6-o5+@-o-+**++..@+.o.o..-***++-7Oo@+o+##..&=##&o..ooo#3>,>##%.o%+-%#>##o##oo+o=O.o-X-%s-+@o+o+ooo&",
".-%.-..>&.O.::%o%%+%%Oo%o.s7++-o-.X4*+.o*+%o..oo+.>>#+-*-@o-%+.+++-+..O+>>&..:Oo&#o.,.##%.o+%oO+@:>=o%.Oo%7+o.@+oo-+o+oX$-.@%.O>",
"#.oo%.oO.# $O.o&+@g++%+$+-*-:.oX-+*-&.-8oO..o+o%.oO,oo--6+$+.o#4+o%o.+##>>##oo#>..o:>3O.+..o@--+O..o.@.=#:oo$+-.o+o-o-@ooo++..%=",
"#&7#.+o%&+Oo+$O.OdO%4%++*6-+$++5+--+oo#%7.%&+++#*+-o.++--+O-X+4+.+o.oooO#>oO.#w#o>o.O>o.Oo..&--+#=O.++#o+++.oo+o$+*%@*++;o&&.o..",
"%.+%O%+oo.O+@4&O@oO+#O@+-+>.$@++--o.oo@-+--o+++o8-++X*-h++-o+-++.&+o+ooo&.o#.O#o.&o..oo++..++77+O.o.&-+%-OX-o@-o++++*6%+oooo.$+O",
"+*7.ooo+%Oo.++o.4+oOX-o+.Owo5+*%Oo..#-O*@&6-++-.-->o.*-o+47+--..ooooo++##>.o..o.##o+o@o7o.>#%*-o..&o..-$oO-&-+6;-O.+$+.&o+OO.+O+",
"o%+#+o%oo%.o+og+g+oo*-;-oo+oo@4...&#.o*+.-o++-*0soo-$++#*--*o.#.:5oo#.7>.o..oo#+o+%##o++o#+o%.-@..oX++-+%o+%7--;+X+@Ooo++%oo@%Oo",
"-@oO%+%+o..XO&&O-+++--o+-X-%.+@%o++OooX.++aoo*+#---..o+o++.o#&o...O.%.o%o.%.+%-.O=%.#.r--O+7.+-+:oX-8+oo+X++67*oo+Oo%$o+oo&O%oo.",
"X+O.oO+++%&.oo4+++o+++o-+o4o+-$+o++O*o++8k#o0*-..-+...--o+o.o..&..o.O#+@+%Xo--r +#X-%r&#.$..*--@X*;-;o++-@O6--8++%o.oO+%o..o++@O",
"+.%+o@+-*%..o.+&#.-+++u*oo++7*.--oo;-@&ooOo@-*+..*+4$-4o.o<o.##>o+o.oo%o+++O+-*Oo+;+#oo+..;@+7-*;-o*+X--+-+*+o.oo...++.O+o---@O+",
"roo%-+o-*+%++++o.+o+>+++++++++7-@-;o;-.#.$o%-7#.o+O0oooo&.>.&o...>o.@-;*+o+.+*%o+#7o+&.#++-*-+@*#$++*87+@++-+@ooo.++go@%--oX%++o",
"7+O+-%@%*+-++@+>d.@4+*.o+o+-r*+**-6+o++o.ooo+@..+.++o.$O.#6o.o.%-&&o%77--7-..++o+o.#-o>O--@+7-@*+.o$.--+;-++@o+%o.oo.+-o-o+o--+o",
"-&%+o+ooooo8+-#.o.+;+.+.@+@*--@-7--.6+--o.-o..o+oo#oooo#1aoo<o@%o#+17+o-@+***-+oXooo+o---@oo*-;-o;7+-7---.%o%..+gooo+++h.+-+hoXo",
".4;%oO.o.+#o#o%o..*-%.-o@-.@+4-oo%+7-+o+.oo++ooo@.#oo+3>>:=q-%@++.%-O-o-*;o-++-+-%%.7o6%+o7-r-%++*+*-;o#%#o++o@Xo+o+-+o+++++++-+",
"q+o+.o.$%.o>;o%+#Oo..oX-o+o%+.O%.--7-.-@+-o.+o+ooo=#,k< , ++%*+%-.r.oXo-++*or++-+.%.-++@-@+-o+*@6@*7-@@.+%.o+oo@h4--4+++o+o@+%o%",
"q#O%.O.o>>++-+6+q<:<.++oX++++-o+@+-+-+o%++o.4%ooo+=+o.>,++%+@*#.*+%.++-**o$%-;#-Oo#@+-o+-*7o%*-*-+%@%7+-+h-.o4o+--++;--o+%.4oOo-",
"qoo%.=..#=-*-ro.qo+>>##@-o%-+o++-+o+ooo...oooo>.xf##Oo%o*o&++o..@--#6*>-.++-o+o+-.+-oO-*++7--7-*7%@-+-+--++.+.d+-+0*-+-+o+oo.o@%",
"*%..>#$=+.**%....o>>oo-%o+%O=+o%+X.oo...Xo...>+=:*o5oo-@%--++:#>.#++--**>+-@*+O;..-#.o7+$--+--*%--o--++---+%og++-7--++--+ooooo++",
"*o#&..Oi.7-$oOo.o==#@+++o+o++4X-.-o;lo+oo##,#,>..>.oo++-+7+@-.O..o.o.>oO#o66-o*o-o+:7@++*-+-+@*@-+--6**-+++o+.%--0h-+@-o+ooo%.o+",
"+>oXO<>=o%o++oo..>.o+o.O.%X++++...<oo$<>>>11...#+o+;+-Oo*;+*o&.o.o+++Oo+@*6*-o*+*X#o-r--*-%+@@6@+@70+6-+o+7++@+-+-*o4++-++oooo@+",
"&ooo%<>>.X.%o&+.#&+%..>&.ooo4o..###o5<1m.>>:+o-#%@-+&.&++7;-.+Ooo@6%o-O#.6+O-7*-8>%+7*--.++@@h--@*7-*7;++@--@-h-+++oo-+-+*ooO+%%",
".%+o.>1&#og.o%#> #4#,<O.+.+--o..#.>=#ioo:#>:;%$--v-+oo+*64--.+-+ooOoo*-+-6+:*-8o-%X-*8O+.+++-+@6r7*-*-7+*+-*++70-++o--@o++o5+%+.",
".Ooo>i<o&#,>.oq,:&#&oo...o.X.<#<.<,#-6&.+...+o*r66+-.oo5+o-Oo-+o+o++-.$oX-o-*++++o@-o%+%@%%d++7-*-77*----+++--*-h-+@+++4++o.--+O",
"o.,&#,%+..#&&#.#>&.......+&.+#><<,i,##..+$o+7o7--.o7+-<+-o--o-oo.+o6.o+6-+oo-+--+++++$X%o++@--@*-***s**7-@4o+o+.+o+#++4+-+6*#%-+",
"-,n>>o..>&.o%dO>..>==...#.+O#.1<q<##.O%$-+-*--o+o;o*-+oX7-%-+*o-+rX.oof+-oOX+--++@@+@o++-+--+--*77*6-*-7-@+o@ooo.X+o-+@+*6+ooo..",
"6.@oo+-$.Oo%>.n#>q,.#O#&#>.o##11&#o#o+%;88f-%o++o+ 7oo0*+o-:-**6;Ooo6.f.o.o-8+o@@-+@%+-%*+-@-@+-*7*-6+--*-+.X+.o+o-+--o0%0.#..o.",
"Oo>7*@#.#%o.#>=&.1>.&#oO##,i>3#.$o+o+$@@;+**+@:o*+o.ooo+o++*+-@#@++-s-;oo$--%#%-*7--%o+@+-**-++*---*----++-o.#oo%oo+--++5oo$owoO",
"@+o6++ooO+..=<,>,=.,,:&:+,.n.>o.++r7;-8f+66*oo-.Xo+oO>-+++-o6*;#6;r-v68*oXO%+%+*-@@;+++---+@-+o7**-*s--++++%+%o+oo+++o+.++#O.o+o",
",=o.%o++#+#.>=,>#X..>#o+ef>>o$%o776;X%7srfr8-o-oo%+.X+.-7+.o-o7**s;s686-++++----7---+O-+-+++-@+7**h0++-o---++-*+h+o--+o.oo5.g+,1",
">.---o-+#&>>,qOo#o=o.>yp#>+%.&oOO86rX86;7*-@oo++;.Oo+-oo+.%o*--@**0r*;+@-%++7--**-+--++@o++-+--+-+o+@*@-6++-+.**++**....oo&#o-:#",
"S+oO+--+##,>O#.>o.3Dyp:..X@++;;j@OOO-6-67+.*-oo7++--+X-;.;o-+o-++7*--@r7-+---+--7-@-+X++.+o**o+7+o-++*7**7o--.o$o+#-o#+oo.o+o.++",
">=O-o++.&>#O%O###>a6>>&O+-X;7@%%%%@-67-f6-o%+o6+;-o-+O-o@-*%7-oj**@-**7r---7-+-r+@o@ooo-+@.7-*-;*+7-+*-7-+-*+++4.+$o+oo.oo#ogho+",
">*.+%o$=.<od,#.oaOc>.o**8-887X%8r-r6++-;-%-oo+.+s-;osoO.+%--7*-6+@+r*6+-o@*---+-oo+ooo--+-47+*+---h@-6--r-7-+#ooo+@*#.1<+..+.--@",
"q.%o.o>#o.===OjN31>$X7r@8r;r7%%@@-7776-@-@oO7*8o@+8oooo%o7--o+-;7-r*--*r+++*--+X>+Xo4+@-----*-7*-+++-7**-+o+<.<o*-6-931.----4+*.",
"3o.o..&.o>.>@Vn1#=o+*8jsXr;8&%@r%*-+7***rr-O;@;o-*.+@.+676--%-*--*-7-*+*-+--+4h.g4-@++-@*-*7-*-8-+-76-o+o.#o>+7++*-o9F-oo+-ooo-%",
"i#o&#.O.-#n,11&.Xo;8;*@@X@o%o@@7-fr77**---@+;;f$*-+;r-***7@@--@-*+@-7-@;@4+X+ooo4o7o--@-*@++**+-7-*7+o:+>,>#,+6-*-+0*-u.**-oo+--",
"n..O.%+. 3q>#>#o--7-&X@;X7@%7%%%j*6@o7*6@+--*;v;;@-+--**+@---@.*8*--704+++++o+o+-+--**-**--++--7**o+.o.>,q,#.*k*-+o++**+7**o*+-+",
",o#&.&y. &&O..XX%@@+%@%@O;%7777-r7@@++js@*+@$8*j*-+**+++%++@7-7*-7---@+--o@4+++@-@----*-@-*r@---o++o+o#.##q.+*-+-+-+*f+--o+@-@-O",
"3=o.Ae>=O&.&%@;+OX%@r%876%r77rr*r7ro;%--+r@oo++7;--;OO-o%o7***---7--7-++++o+-@+;@+6**r6*-7*6*-+ff**0&...,=##o*+-+g+-ru-++o4>+-*;",
",O$+>,&:@%@@@@7+%@7@@@r7%%@786rr*o@@7;%7+**ooX-*--%&.o-+;-8*h7o--;-h+-%+-++--+-*6-**r--*@--*ooo66@-+-.qo<,>.o+--+o+-*6-.%--+-@-+",
"1.O&:O%O@@%@%@O%@@@r@@j@@7%-jr7%7X77r%@--@..+*78%@+o%o*+.-7*+-O------++o++77****---**--*r-4%-o+o+--+*+.<,1bo+..+o-+-6*-4o;+o*++%",
"#+Oo::+%%7oOOO4@@@%@O@77r7@77rrrr7$;@O-*-%o%--oo%+7o.+*4--+@-7+**-+-+o+-+-*--*77****--76r-f6ogo-r*-*6*oq,9%<#.,o..*-**-+*-.+--O*",
"O.%+.%O.%-@O%g;*@-&@O@7hr-7r77@r8rX;r-@-*+%oOO+o++++4+-;-------+hh++%----;*7--*-*7*7--*-.++o-.++*r*-+.>q=<+.>1>,.+*-0+4+o+#oo@-%",
",-:.oO&q%o7g.4**777@7r+@77@%7*7r@X@@.+Or+->=.+.o@-+%+-4o*+-@-h%o-o++--@-*-6*--@*-r**o-7@.o++++u6#+Xoc3oq+*og-o+#o+-*6-o-o+#+--;%",
"+Oo&+O@4+;ooo--j@@O%7777r%%7jr@r%@7X@-+%.in##O+o--;%+r++--*-+++o+4--7*7--+7-*-*-667+*6-ooo@.*-**oo,q<34.*o-+*-*o.--**@o---+7o%#&",
"6.+oo-o+--g..-X@7O7j.j7*r7r7@7r7%@@@;o>=.>i.#%O.--++o*-;*-+++++-@+-*-*-%-*-*6*6f+o+X@->#.o+-*6o.%.+O-*---0+o*--++*+-%4;O+*+oOdod",
".oO+.o..@%oOO+O7%+Or-@7%7@rrr78r%@%->qq=&#>.o+o+7*%+@-+@4+4++o@+*--*%@*-67**ju--++o-.&o.+X-o-@->,@.@7,u-;+-+*->.o-*@o-6-6@q<.o.<",
">oq.ooXo@+o.%%-@@=@@-@7@7@77@77@%%#>q,##$##..%;@*-%oooog;-*7++-@7+-;+76-*766**+.----*@66+*6*+-5#>#%o.@---**-*@++oo-g-*06..#<=g##",
". 1&O.-.,o<OO@7%-XXrO7%%r@7@@7O@:>>====>.<.$o++7.o+o.o+%<-*+++h-@*++76X-*6---oo+-**+*6j*.o@7g+&<=#oo-*a+o--4@*-...0+-;oo..,.>oO.",
".>>Xo+o-&%OoO7X;X%;@@%o7@@@7%@q>#=>=>,&Oo=O.*+O+*h+g+++++*-++%-*-+++-**-+.+-o+#@-*-*r6+Xo++*#-oo*+o#*f.o767go--oo#o4.oX&.:,>>..o",
"#>=##+o*+o%oO%r7r@7@%j%7%rO%=1,=q#,q<>..O<%ooX&o-o+ooo+%@-+%+-+++-.---.-.o+>#<$o-;*a7++%+-+--#o**%..o.-4*so5.*+-O--..o>..#31#oO%",
"@#,iO$rood4OX@X;7%@%rr@@%O>#.>#q #>>##>.O#oog++o+o+%%oo@7-*.@---.@7o;*+6+%oO,oo0>*.u+o-o7+67o66;%o.=oX-+-+.o-7o;+oXo&w,$.#>1.o%o",
"-&>>%#+#OO-+;@88%;X@r@@7&=#.#&>q#=####<.#.&%++-++%++-%++6@-;--++%++-@+-+++.i1+7+*6<.o.+;6**-66*+oX-oooo++-.4-,0+.o$-&.<>o+.>.O%o",
"8.2,..@-.o@oXX8;7%7%@7>&&>..>#qq#.>#q#,#O#oo++-*-@+h+.O*6-*@@@++@-.%+r+7-81.#o**g#o.;--*-------&6-+-o.*+oo+++oOo+o.+.O#..oo..ooo",
"%.q>*+%oo#%O.@$@:%77 >...##& #&###&=,#<qoo;o*@77+++@+%+;-+--;*g-@-o+++-7>#>#.#o+.%+o+-o+%@@.o@-7*@-%.X$++-;+u<.%O++5.+.4.ooO.o+&",
"6@$o*o%+@*..::;;@7>,o.O%.>.#=,=#..&##=>.>%ho-+*-o&+h+%+@*7k-o4o+o@-*o6o.>,.o..##o++++Xo$.+.++-+o*o*-++5#-++++oo.+-$oo+5#%o-=oo+o",
"@++&..*#=>or#=&@q>#&$..o.#<&,########>.##o+%7-7-7o*@ooo+r*-oo+oooo<oo7...@jo,#>o#o@X-+oo-+o+*.+++-++%++o-o+%%..+--.oo.<+oo*oo$oo",
"*do%.O->&##O:#>=..&o&...& ..=<>.&#&.#=>#=.%-++----o4:+@-o**++oo&##oX><oo-6.#,O@.>.#-+o+-o$o.X-ooooo.#:+++o..,.%o-.Oo&oXo&r-+*+:>",
"&o<o>o..@.$. #o&O#&&O.ooo.o##>>...o&&&O.O.o-+-7--+%+Oo+-.-oXoo:.+#.+:1o.O#=+..>.%+@+-+oo.+4+ho++o.:.o+ooo$o>o.oOo<oooo-o-o6@-@.,",
"&#.%+O+.Oo.o%o..O...ooOooO.##>#=.o##.Oooo@o-+7r+%X#.@++;f-@@+#g.o5o-+&%#&ooO.>#>o+-oo++++o%-.;4--oo+.5.+*o.++.+.+oO+@#++8+f*++.#",
"#O@oo+@7%o.oOoOooO...oO%.O><>,.:##+.ooo.#+-*%+@-+h+s--@+*6++$+#.-gqoooo+o#.$:>Oo@o:O<+o+++*...#o-+4-o#o++@&oO.o.O+o.o+o+7+r-ooo+",
"o%%o&oOO%Xo%oo..O....#..+X#&=###X..%oo@#O+4o-6++oo&o+++%.+4odo+o..#,..&#&#o.=>+ooo#o.$+o+o&w#>=##oo#o,++o..&o&oXo+Ooo%+@oO-$#.,%",
".o*+o+-%.ooo+%%o&..O&#O++o.O..&#X.oo#.o+.@@++++o@+o%-+oo+oo.+++.4g,.#%O#.o>>#=%:=<.o+,+-+o..#:o##4o--6--o&.o...oO++o=o+.7+oo#&#.",
"<-&oo@+$Ooo%+%o.dO....o+o:+%.#.1Xod:&$+o&+;-;-.X--O*X.-@.o++o++4.oo.##,#$+,>O#<#oX.Oo$.oo#.#o# .#oo*;.o+7.>#..$-o-.o%.Oo--+>#+##"
};
